P3
4 3
255
9 40 100          100 0 220         0 0 0        255 0 255
0 0 0             17 90 170         0 15 175     0 0 0
4 8 15            70 23 97          4 180 0      10 200 56